<svg xmlns="http://www.w3.org/2000/svg" xmlns:xlink="http://www.w3.org/1999/xlink" width="500" zoomAndPan="magnify" viewBox="0 0 375 187.499995" height="250" preserveAspectRatio="xMidYMid meet" version="1.0"><defs><g/><clipPath id="id1"><path d="M 241.9375 124.195312 L 264 124.195312 L 264 165 L 241.9375 165 Z M 241.9375 124.195312 " clip-rule="nonzero"/></clipPath><clipPath id="id2"><path d="M 246 124.195312 L 336.792969 124.195312 L 336.792969 181.269531 L 246 181.269531 Z M 246 124.195312 " clip-rule="nonzero"/></clipPath></defs><g fill="rgb(100%, 100%, 100%)" fill-opacity="1"><g transform="translate(144.736471, 69.742127)"><g/></g></g><g fill="rgb(100%, 100%, 100%)" fill-opacity="1"><g transform="translate(38.282082, 164.489455)"><g><path d="M 30.957031 -29.238281 L 30.957031 -17.757812 L 35.273438 -17.757812 C 37.855469 -17.757812 39.84375 -18.257812 41.234375 -19.253906 C 42.621094 -20.253906 43.316406 -21.667969 43.316406 -23.5 C 43.316406 -25.363281 42.621094 -26.785156 41.234375 -27.765625 C 39.84375 -28.746094 37.855469 -29.238281 35.273438 -29.238281 Z M 30.957031 -54.75 L 30.957031 -44.691406 L 34.339844 -44.691406 C 36.433594 -44.691406 38.027344 -45.125 39.125 -45.992188 C 40.21875 -46.859375 40.765625 -48.109375 40.765625 -49.746094 C 40.765625 -51.378906 40.21875 -52.621094 39.125 -53.472656 C 38.027344 -54.324219 36.433594 -54.75 34.339844 -54.75 Z M 6.722656 0 L 6.722656 -71.820312 L 41.109375 -71.820312 C 48.46875 -71.820312 54.207031 -70.09375 58.328125 -66.644531 C 62.449219 -63.195312 64.511719 -58.394531 64.511719 -52.246094 C 64.511719 -48.320312 63.539062 -45.058594 61.589844 -42.460938 C 59.644531 -39.859375 56.890625 -38.167969 53.324219 -37.382812 C 58.199219 -36.367188 61.828125 -34.453125 64.214844 -31.640625 C 66.605469 -28.828125 67.796875 -25.050781 67.796875 -20.308594 C 67.796875 -13.605469 65.53125 -8.542969 61.003906 -5.125 C 56.472656 -1.707031 49.808594 0 41.011719 0 Z M 6.722656 0 "/></g></g></g><g fill="rgb(100%, 100%, 100%)" fill-opacity="1"><g transform="translate(108.620036, 164.489455)"><g><path d="M 5.9375 -32.867188 L 5.9375 -71.820312 L 31.738281 -71.820312 L 31.738281 -32.671875 C 31.738281 -28.125 32.28125 -24.996094 33.359375 -23.277344 C 34.4375 -21.5625 36.285156 -20.703125 38.902344 -20.703125 C 41.484375 -20.703125 43.335938 -21.585938 44.445312 -23.351562 C 45.558594 -25.117188 46.113281 -28.222656 46.113281 -32.671875 L 46.113281 -71.820312 L 71.917969 -71.820312 L 71.917969 -32.867188 C 71.917969 -27.765625 71.582031 -23.5625 70.914062 -20.261719 C 70.242188 -16.957031 69.171875 -14.195312 67.699219 -11.96875 C 64.820312 -7.488281 60.898438 -4.054688 55.925781 -1.667969 C 50.953125 0.71875 45.28125 1.914062 38.902344 1.914062 C 32.492188 1.914062 26.800781 0.71875 21.832031 -1.667969 C 16.859375 -4.054688 12.933594 -7.488281 10.058594 -11.96875 C 8.617188 -14.160156 7.570312 -16.890625 6.917969 -20.164062 C 6.261719 -23.433594 5.9375 -27.667969 5.9375 -32.867188 Z M 5.9375 -32.867188 "/></g></g></g><g fill="rgb(100%, 100%, 100%)" fill-opacity="1"><g transform="translate(187.198421, 164.489455)"><g><path d="M 18.398438 0 L 18.398438 -31.738281 L -5.640625 -71.820312 L 23.792969 -71.820312 L 29.828125 -57.886719 C 30.382812 -56.675781 31.035156 -54.878906 31.789062 -52.492188 C 31.855469 -52.261719 31.902344 -52.082031 31.9375 -51.953125 C 32.296875 -53.097656 32.917969 -54.78125 33.800781 -57.003906 C 33.964844 -57.398438 34.078125 -57.675781 34.144531 -57.839844 L 40.078125 -71.820312 L 69.316406 -71.820312 L 44.398438 -31.738281 L 44.398438 0 Z M 18.398438 0 "/></g></g></g><g clip-path="url(#id1)"><path fill="rgb(10.978699%, 14.509583%, 17.248535%)" d="M 199.796875 164.804688 L 199.796875 132.011719 L 165.238281 73.027344 L 194.988281 73.027344 L 214.542969 104.628906 L 234.164062 73.027344 L 263.980469 73.027344 L 229.289062 132.347656 L 229.289062 164.804688 Z M 199.796875 164.804688 " fill-opacity="1" fill-rule="nonzero"/></g><g clip-path="url(#id2)"><path fill="rgb(100%, 92.939758%, 19.219971%)" d="M 263.980469 123.257812 L 246.636719 140.574219 L 246.636719 163.953125 L 263.980469 181.269531 L 337.359375 181.269531 L 337.359375 123.257812 Z M 263.980469 123.257812 " fill-opacity="1" fill-rule="nonzero"/></g><path fill="rgb(10.978699%, 14.509583%, 17.248535%)" d="M 261.132812 152.25 C 261.132812 154.402344 259.386719 156.148438 257.230469 156.148438 C 255.074219 156.148438 253.328125 154.402344 253.328125 152.25 C 253.328125 150.097656 255.074219 148.355469 257.230469 148.355469 C 259.386719 148.355469 261.132812 150.097656 261.132812 152.25 Z M 261.132812 152.25 " fill-opacity="1" fill-rule="nonzero"/><g fill="rgb(100%, 100%, 100%)" fill-opacity="1"><g transform="translate(52.522976, 83.728613)"><g><path d="M 18.398438 0 L 18.398438 -31.738281 L -5.640625 -71.820312 L 23.792969 -71.820312 L 29.828125 -57.886719 C 30.382812 -56.675781 31.035156 -54.878906 31.789062 -52.492188 C 31.855469 -52.261719 31.902344 -52.082031 31.9375 -51.953125 C 32.296875 -53.097656 32.917969 -54.78125 33.800781 -57.003906 C 33.964844 -57.398438 34.078125 -57.675781 34.144531 -57.839844 L 40.078125 -71.820312 L 69.316406 -71.820312 L 44.398438 -31.738281 L 44.398438 0 Z M 18.398438 0 "/></g></g></g><g fill="rgb(100%, 100%, 100%)" fill-opacity="1"><g transform="translate(116.533466, 83.728613)"><g><path d="M 6.722656 0 L 6.722656 -71.820312 L 54.75 -71.820312 L 54.75 -52.34375 L 32.035156 -52.34375 L 32.035156 -45.425781 L 52.636719 -45.425781 L 52.636719 -27.03125 L 32.035156 -27.03125 L 32.035156 -19.476562 L 55.335938 -19.476562 L 55.335938 0 Z M 6.722656 0 "/></g></g></g><g fill="rgb(100%, 100%, 100%)" fill-opacity="1"><g transform="translate(175.589879, 83.728613)"><g><path d="M 0.195312 -6.132812 L 8.4375 -26.246094 C 12.132812 -23.660156 15.429688 -21.773438 18.324219 -20.578125 C 21.21875 -19.386719 23.921875 -18.789062 26.441406 -18.789062 C 28.207031 -18.789062 29.597656 -19.125 30.613281 -19.792969 C 31.625 -20.464844 32.132812 -21.371094 32.132812 -22.515625 C 32.132812 -24.511719 29.597656 -26.03125 24.527344 -27.078125 C 22.894531 -27.4375 21.617188 -27.71875 20.703125 -27.914062 C 15.339844 -29.222656 11.234375 -31.542969 8.390625 -34.878906 C 5.542969 -38.214844 4.121094 -42.371094 4.121094 -47.339844 C 4.121094 -55.058594 6.882812 -61.339844 12.410156 -66.179688 C 17.9375 -71.019531 25.183594 -73.4375 34.144531 -73.4375 C 38.265625 -73.4375 42.320312 -72.898438 46.308594 -71.820312 C 50.300781 -70.742188 54.324219 -69.105469 58.378906 -66.914062 L 50.527344 -48.125 C 48.042969 -49.957031 45.550781 -51.355469 43.046875 -52.320312 C 40.546875 -53.285156 38.117188 -53.765625 35.761719 -53.765625 C 33.964844 -53.765625 32.574219 -53.464844 31.59375 -52.859375 C 30.613281 -52.253906 30.121094 -51.414062 30.121094 -50.332031 C 30.121094 -48.304688 33.703125 -46.523438 40.863281 -44.984375 C 42.007812 -44.722656 42.890625 -44.527344 43.515625 -44.398438 C 48.453125 -43.285156 52.34375 -41.011719 55.191406 -37.578125 C 58.035156 -34.144531 59.457031 -29.992188 59.457031 -25.117188 C 59.457031 -17.171875 56.585938 -10.679688 50.847656 -5.640625 C 45.109375 -0.605469 37.644531 1.914062 28.453125 1.914062 C 23.742188 1.914062 19.035156 1.242188 14.324219 -0.0976562 C 9.617188 -1.4375 4.90625 -3.449219 0.195312 -6.132812 Z M 0.195312 -6.132812 "/></g></g></g></svg>